<?xml version="1.0" encoding="UTF-8" standalone="no"?>
<!DOCTYPE svg PUBLIC "-//W3C//DTD SVG 1.1//EN"
 "http://www.w3.org/Graphics/SVG/1.1/DTD/svg11.dtd">
<!-- Generated by graphviz version 2.43.0 (0)
 -->
<!-- Title: stop Pages: 1 -->
<svg width="249pt" height="182pt"
 viewBox="0.00 0.00 249.00 182.00" xmlns="http://www.w3.org/2000/svg" xmlns:xlink="http://www.w3.org/1999/xlink">
<g id="graph0" class="graph" transform="scale(1 1) rotate(0) translate(4 178)">
<title>stop</title>
<!-- Node1 -->
<g id="node1" class="node">
<title>Node1</title>
<g id="a_node1"><a xlink:title=" ">
<polygon fill="#999999" stroke="#666666" points="241,-96.5 203,-96.5 203,-77.5 241,-77.5 241,-96.5"/>
<text text-anchor="middle" x="222" y="-84.5" font-family="Helvetica,sans-Serif" font-size="10.00">stop</text>
</a>
</g>
</g>
<!-- Node2 -->
<g id="node2" class="node">
<title>Node2</title>
<g id="a_node2"><a xlink:href="classalpaqa_1_1PANOCOCPSolver.html#a8c528baf37154d347366083f0f816846" target="_top" xlink:title=" ">
<polygon fill="white" stroke="#666666" points="153.5,-174 13.5,-174 13.5,-144 153.5,-144 153.5,-174"/>
<text text-anchor="start" x="21.5" y="-162" font-family="Helvetica,sans-Serif" font-size="10.00">alpaqa::PANOCOCPSolver</text>
<text text-anchor="middle" x="83.5" y="-151" font-family="Helvetica,sans-Serif" font-size="10.00">::stop</text>
</a>
</g>
</g>
<!-- Node1&#45;&gt;Node2 -->
<g id="edge1" class="edge">
<title>Node1&#45;&gt;Node2</title>
<path fill="none" stroke="#63b8ff" d="M205.89,-103.8C195.79,-114.12 181.7,-126.88 167,-135 160.86,-138.39 154.2,-141.35 147.41,-143.91"/>
<polygon fill="#63b8ff" stroke="#63b8ff" points="208.46,-106.18 212.78,-96.5 203.37,-101.37 208.46,-106.18"/>
</g>
<!-- Node3 -->
<g id="node3" class="node">
<title>Node3</title>
<g id="a_node3"><a xlink:href="classalpaqa_1_1PANTRSolver.html#a8c528baf37154d347366083f0f816846" target="_top" xlink:title=" ">
<polygon fill="white" stroke="#666666" points="143,-126 24,-126 24,-96 143,-96 143,-126"/>
<text text-anchor="start" x="32" y="-114" font-family="Helvetica,sans-Serif" font-size="10.00">alpaqa::PANTRSolver</text>
<text text-anchor="middle" x="83.5" y="-103" font-family="Helvetica,sans-Serif" font-size="10.00">::stop</text>
</a>
</g>
</g>
<!-- Node1&#45;&gt;Node3 -->
<g id="edge2" class="edge">
<title>Node1&#45;&gt;Node3</title>
<path fill="none" stroke="#63b8ff" d="M192.7,-91.98C178.36,-94.5 160.41,-97.65 143.27,-100.67"/>
<polygon fill="#63b8ff" stroke="#63b8ff" points="193.63,-95.37 202.87,-90.19 192.42,-88.47 193.63,-95.37"/>
</g>
<!-- Node4 -->
<g id="node4" class="node">
<title>Node4</title>
<g id="a_node4"><a xlink:href="classalpaqa_1_1ZeroFPRSolver.html#a8c528baf37154d347366083f0f816846" target="_top" xlink:title=" ">
<polygon fill="white" stroke="#666666" points="147.5,-78 19.5,-78 19.5,-48 147.5,-48 147.5,-78"/>
<text text-anchor="start" x="27.5" y="-66" font-family="Helvetica,sans-Serif" font-size="10.00">alpaqa::ZeroFPRSolver</text>
<text text-anchor="middle" x="83.5" y="-55" font-family="Helvetica,sans-Serif" font-size="10.00">::stop</text>
</a>
</g>
</g>
<!-- Node1&#45;&gt;Node4 -->
<g id="edge3" class="edge">
<title>Node1&#45;&gt;Node4</title>
<path fill="none" stroke="#63b8ff" d="M192.64,-82.01C179.51,-79.7 163.35,-76.86 147.56,-74.09"/>
<polygon fill="#63b8ff" stroke="#63b8ff" points="192.42,-85.53 202.87,-83.81 193.63,-78.63 192.42,-85.53"/>
</g>
<!-- Node5 -->
<g id="node5" class="node">
<title>Node5</title>
<g id="a_node5"><a xlink:href="classalpaqa_1_1lbfgspp_1_1LBFGSBSolver.html#a8c528baf37154d347366083f0f816846" target="_top" xlink:title=" ">
<polygon fill="white" stroke="#666666" points="167,-30 0,-30 0,0 167,0 167,-30"/>
<text text-anchor="start" x="8" y="-18" font-family="Helvetica,sans-Serif" font-size="10.00">alpaqa::lbfgspp::LBFGSBSolver</text>
<text text-anchor="middle" x="83.5" y="-7" font-family="Helvetica,sans-Serif" font-size="10.00">::stop</text>
</a>
</g>
</g>
<!-- Node1&#45;&gt;Node5 -->
<g id="edge4" class="edge">
<title>Node1&#45;&gt;Node5</title>
<path fill="none" stroke="#63b8ff" d="M205.89,-70.2C195.79,-59.88 181.7,-47.12 167,-39 160.86,-35.61 154.2,-32.65 147.41,-30.09"/>
<polygon fill="#63b8ff" stroke="#63b8ff" points="203.37,-72.63 212.78,-77.5 208.46,-67.82 203.37,-72.63"/>
</g>
</g>
</svg>
