<?xml version="1.0" encoding="UTF-8" standalone="no"?>
<!DOCTYPE svg PUBLIC "-//W3C//DTD SVG 1.1//EN"
 "http://www.w3.org/Graphics/SVG/1.1/DTD/svg11.dtd">
<!-- Generated by graphviz version 2.43.0 (0)
 -->
<!-- Title: float_to_str_vw Pages: 1 -->
<svg width="552pt" height="457pt"
 viewBox="0.00 0.00 552.00 456.50" xmlns="http://www.w3.org/2000/svg" xmlns:xlink="http://www.w3.org/1999/xlink">
<g id="graph0" class="graph" transform="scale(1 1) rotate(0) translate(4 452.5)">
<title>float_to_str_vw</title>
<!-- Node1 -->
<g id="node1" class="node">
<title>Node1</title>
<g id="a_node1"><a xlink:title=" ">
<polygon fill="#999999" stroke="#666666" points="544,-243 453,-243 453,-224 544,-224 544,-243"/>
<text text-anchor="middle" x="498.5" y="-231" font-family="Helvetica,sans-Serif" font-size="10.00">float_to_str_vw</text>
</a>
</g>
</g>
<!-- Node2 -->
<g id="node2" class="node">
<title>Node2</title>
<g id="a_node2"><a xlink:href="namespacealpaqa.html#ae50af6bf82d3c0cc4093c46b8e2c4379" target="_top" xlink:title=" ">
<polygon fill="white" stroke="#666666" points="372,-419 301,-419 301,-400 372,-400 372,-419"/>
<text text-anchor="middle" x="336.5" y="-407" font-family="Helvetica,sans-Serif" font-size="10.00">float_to_str</text>
</a>
</g>
</g>
<!-- Node1&#45;&gt;Node2 -->
<g id="edge1" class="edge">
<title>Node1&#45;&gt;Node2</title>
<path fill="none" stroke="#63b8ff" d="M493.24,-253.14C484.84,-286.92 462.85,-355.84 417,-391.5 404.38,-401.32 387.41,-405.98 372.39,-408.12"/>
<polygon fill="#63b8ff" stroke="#63b8ff" points="496.71,-253.66 495.58,-243.13 489.89,-252.07 496.71,-253.66"/>
</g>
<!-- Node6 -->
<g id="node6" class="node">
<title>Node6</title>
<g id="a_node6"><a xlink:href="namespacealpaqa.html#a831ef15f3db86f01f414d4755ebece20" target="_top" xlink:title=" ">
<polygon fill="white" stroke="#666666" points="382,-382 291,-382 291,-363 382,-363 382,-382"/>
<text text-anchor="middle" x="336.5" y="-370" font-family="Helvetica,sans-Serif" font-size="10.00">float_to_str_vw</text>
</a>
</g>
</g>
<!-- Node1&#45;&gt;Node6 -->
<g id="edge5" class="edge">
<title>Node1&#45;&gt;Node6</title>
<path fill="none" stroke="#63b8ff" d="M490.08,-252.49C478.6,-279.3 453.92,-327.85 417,-353.5 406.74,-360.63 394.15,-365.1 382.03,-367.9"/>
<polygon fill="#63b8ff" stroke="#63b8ff" points="493.39,-253.64 493.96,-243.06 486.92,-250.98 493.39,-253.64"/>
</g>
<!-- Node7 -->
<g id="node7" class="node">
<title>Node7</title>
<g id="a_node7"><a xlink:href="classalpaqa_1_1PANOCOCPSolver.html#ab1efa2b14ea4439cabe383cd997688e5" target="_top" xlink:title=" ">
<polygon fill="white" stroke="#666666" points="406.5,-344.5 266.5,-344.5 266.5,-314.5 406.5,-314.5 406.5,-344.5"/>
<text text-anchor="start" x="274.5" y="-332.5" font-family="Helvetica,sans-Serif" font-size="10.00">alpaqa::PANOCOCPSolver</text>
<text text-anchor="middle" x="336.5" y="-321.5" font-family="Helvetica,sans-Serif" font-size="10.00">::operator()</text>
</a>
</g>
</g>
<!-- Node1&#45;&gt;Node7 -->
<g id="edge6" class="edge">
<title>Node1&#45;&gt;Node7</title>
<path fill="none" stroke="#63b8ff" d="M482.12,-251.11C467.03,-267.37 442.62,-291.12 417,-305.5 410.97,-308.89 404.4,-311.85 397.71,-314.42"/>
<polygon fill="#63b8ff" stroke="#63b8ff" points="485,-253.14 489.12,-243.38 479.81,-248.44 485,-253.14"/>
</g>
<!-- Node9 -->
<g id="node9" class="node">
<title>Node9</title>
<g id="a_node9"><a xlink:href="classalpaqa_1_1PANOCSolver.html#a3e8ce8c8bfa2c124a129b750ea60ad64" target="_top" xlink:title=" ">
<polygon fill="white" stroke="#666666" points="396.5,-296.5 276.5,-296.5 276.5,-266.5 396.5,-266.5 396.5,-296.5"/>
<text text-anchor="start" x="284.5" y="-284.5" font-family="Helvetica,sans-Serif" font-size="10.00">alpaqa::PANOCSolver</text>
<text text-anchor="middle" x="336.5" y="-273.5" font-family="Helvetica,sans-Serif" font-size="10.00">::operator()</text>
</a>
</g>
</g>
<!-- Node1&#45;&gt;Node9 -->
<g id="edge8" class="edge">
<title>Node1&#45;&gt;Node9</title>
<path fill="none" stroke="#63b8ff" d="M455.69,-246.04C434.88,-252.29 409.56,-259.88 387.71,-266.44"/>
<polygon fill="#63b8ff" stroke="#63b8ff" points="456.93,-249.32 465.51,-243.1 454.92,-242.62 456.93,-249.32"/>
</g>
<!-- Node10 -->
<g id="node10" class="node">
<title>Node10</title>
<g id="a_node10"><a xlink:href="classalpaqa_1_1PANTRSolver.html#a3e8ce8c8bfa2c124a129b750ea60ad64" target="_top" xlink:title=" ">
<polygon fill="white" stroke="#666666" points="396,-248.5 277,-248.5 277,-218.5 396,-218.5 396,-248.5"/>
<text text-anchor="start" x="285" y="-236.5" font-family="Helvetica,sans-Serif" font-size="10.00">alpaqa::PANTRSolver</text>
<text text-anchor="middle" x="336.5" y="-225.5" font-family="Helvetica,sans-Serif" font-size="10.00">::operator()</text>
</a>
</g>
</g>
<!-- Node1&#45;&gt;Node10 -->
<g id="edge9" class="edge">
<title>Node1&#45;&gt;Node10</title>
<path fill="none" stroke="#63b8ff" d="M442.78,-233.5C427.76,-233.5 411.42,-233.5 396.19,-233.5"/>
<polygon fill="#63b8ff" stroke="#63b8ff" points="442.93,-237 452.93,-233.5 442.93,-230 442.93,-237"/>
</g>
<!-- Node12 -->
<g id="node12" class="node">
<title>Node12</title>
<g id="a_node12"><a xlink:href="classalpaqa_1_1ZeroFPRSolver.html#a3e8ce8c8bfa2c124a129b750ea60ad64" target="_top" xlink:title=" ">
<polygon fill="white" stroke="#666666" points="400.5,-200.5 272.5,-200.5 272.5,-170.5 400.5,-170.5 400.5,-200.5"/>
<text text-anchor="start" x="280.5" y="-188.5" font-family="Helvetica,sans-Serif" font-size="10.00">alpaqa::ZeroFPRSolver</text>
<text text-anchor="middle" x="336.5" y="-177.5" font-family="Helvetica,sans-Serif" font-size="10.00">::operator()</text>
</a>
</g>
</g>
<!-- Node1&#45;&gt;Node12 -->
<g id="edge11" class="edge">
<title>Node1&#45;&gt;Node12</title>
<path fill="none" stroke="#63b8ff" d="M455.69,-220.96C434.88,-214.71 409.56,-207.12 387.71,-200.56"/>
<polygon fill="#63b8ff" stroke="#63b8ff" points="454.92,-224.38 465.51,-223.9 456.93,-217.68 454.92,-224.38"/>
</g>
<!-- Node14 -->
<g id="node14" class="node">
<title>Node14</title>
<g id="a_node14"><a xlink:href="classalpaqa_1_1lbfgsb_1_1LBFGSBSolver.html#a3e8ce8c8bfa2c124a129b750ea60ad64" target="_top" xlink:title=" ">
<polygon fill="white" stroke="#666666" points="417,-152.5 256,-152.5 256,-122.5 417,-122.5 417,-152.5"/>
<text text-anchor="start" x="264" y="-140.5" font-family="Helvetica,sans-Serif" font-size="10.00">alpaqa::lbfgsb::LBFGSBSolver</text>
<text text-anchor="middle" x="336.5" y="-129.5" font-family="Helvetica,sans-Serif" font-size="10.00">::operator()</text>
</a>
</g>
</g>
<!-- Node1&#45;&gt;Node14 -->
<g id="edge13" class="edge">
<title>Node1&#45;&gt;Node14</title>
<path fill="none" stroke="#63b8ff" d="M482.12,-215.89C467.03,-199.63 442.62,-175.88 417,-161.5 410.97,-158.11 404.4,-155.15 397.71,-152.58"/>
<polygon fill="#63b8ff" stroke="#63b8ff" points="479.81,-218.56 489.12,-223.62 485,-213.86 479.81,-218.56"/>
</g>
<!-- Node15 -->
<g id="node15" class="node">
<title>Node15</title>
<g id="a_node15"><a xlink:href="classalpaqa_1_1ALMSolver.html#a70c4d1e67e4737739940a28e3ae3251b" target="_top" xlink:title=" ">
<polygon fill="white" stroke="#666666" points="393,-104.5 280,-104.5 280,-74.5 393,-74.5 393,-104.5"/>
<text text-anchor="start" x="288" y="-92.5" font-family="Helvetica,sans-Serif" font-size="10.00">alpaqa::ALMSolver::</text>
<text text-anchor="middle" x="336.5" y="-81.5" font-family="Helvetica,sans-Serif" font-size="10.00">operator()</text>
</a>
</g>
</g>
<!-- Node1&#45;&gt;Node15 -->
<g id="edge14" class="edge">
<title>Node1&#45;&gt;Node15</title>
<path fill="none" stroke="#63b8ff" d="M489.7,-214.41C477.89,-187.87 452.98,-140.09 417,-113.5 409.93,-108.27 401.71,-104.17 393.3,-100.96"/>
<polygon fill="#63b8ff" stroke="#63b8ff" points="486.55,-215.94 493.71,-223.76 492.98,-213.19 486.55,-215.94"/>
</g>
<!-- Node16 -->
<g id="node16" class="node">
<title>Node16</title>
<g id="a_node16"><a xlink:href="namespacealpaqa.html#ad71c732e454983d9535cf5e113f60b7b" target="_top" xlink:title=" ">
<polygon fill="white" stroke="#666666" points="371,-56 302,-56 302,-37 371,-37 371,-56"/>
<text text-anchor="middle" x="336.5" y="-44" font-family="Helvetica,sans-Serif" font-size="10.00">print_elem</text>
</a>
</g>
</g>
<!-- Node1&#45;&gt;Node16 -->
<g id="edge15" class="edge">
<title>Node1&#45;&gt;Node16</title>
<path fill="none" stroke="#63b8ff" d="M493.79,-213.68C486.08,-178.25 464.91,-104.18 417,-65.5 404.19,-55.16 386.67,-50.29 371.33,-48.05"/>
<polygon fill="#63b8ff" stroke="#63b8ff" points="490.41,-214.62 495.83,-223.73 497.27,-213.23 490.41,-214.62"/>
</g>
<!-- Node3 -->
<g id="node3" class="node">
<title>Node3</title>
<g id="a_node3"><a xlink:href="structalpaqa_1_1StructuredNewtonDirection.html#ad02c79a109cef288e13bc9c944af3b48" target="_top" xlink:title=" ">
<polygon fill="white" stroke="#666666" points="220,-448.5 77,-448.5 77,-418.5 220,-418.5 220,-448.5"/>
<text text-anchor="start" x="85" y="-436.5" font-family="Helvetica,sans-Serif" font-size="10.00">alpaqa::StructuredNewton</text>
<text text-anchor="middle" x="148.5" y="-425.5" font-family="Helvetica,sans-Serif" font-size="10.00">Direction::apply</text>
</a>
</g>
</g>
<!-- Node2&#45;&gt;Node3 -->
<g id="edge2" class="edge">
<title>Node2&#45;&gt;Node3</title>
<path fill="none" stroke="#63b8ff" d="M290.94,-415.25C269.74,-417.99 243.86,-421.32 220.08,-424.39"/>
<polygon fill="#63b8ff" stroke="#63b8ff" points="291.48,-418.71 300.95,-413.96 290.59,-411.77 291.48,-418.71"/>
</g>
<!-- Node4 -->
<g id="node4" class="node">
<title>Node4</title>
<g id="a_node4"><a xlink:href="results_8hpp.html#ac44ace62be5699e983e8e4596ea74cf1" target="_top" xlink:title=" ">
<polygon fill="white" stroke="#666666" points="187,-400 110,-400 110,-381 187,-381 187,-400"/>
<text text-anchor="middle" x="148.5" y="-388" font-family="Helvetica,sans-Serif" font-size="10.00">print_results</text>
</a>
</g>
</g>
<!-- Node2&#45;&gt;Node4 -->
<g id="edge3" class="edge">
<title>Node2&#45;&gt;Node4</title>
<path fill="none" stroke="#63b8ff" d="M290.63,-404.92C258.95,-401.68 216.98,-397.39 187.06,-394.34"/>
<polygon fill="#63b8ff" stroke="#63b8ff" points="290.65,-408.44 300.95,-405.97 291.36,-401.47 290.65,-408.44"/>
</g>
<!-- Node5 -->
<g id="node5" class="node">
<title>Node5</title>
<g id="a_node5"><a xlink:href="alpaqa-driver_8cpp.html#ac0f2228420376f4db7e1274f2b41667c" target="_top" xlink:title=" ">
<polygon fill="white" stroke="#666666" points="41,-400 0,-400 0,-381 41,-381 41,-400"/>
<text text-anchor="middle" x="20.5" y="-388" font-family="Helvetica,sans-Serif" font-size="10.00">main</text>
</a>
</g>
</g>
<!-- Node4&#45;&gt;Node5 -->
<g id="edge4" class="edge">
<title>Node4&#45;&gt;Node5</title>
<path fill="none" stroke="#63b8ff" d="M99.61,-390.5C79.24,-390.5 56.64,-390.5 41.01,-390.5"/>
<polygon fill="#63b8ff" stroke="#63b8ff" points="99.7,-394 109.7,-390.5 99.7,-387 99.7,-394"/>
</g>
<!-- Node8 -->
<g id="node8" class="node">
<title>Node8</title>
<g id="a_node8"><a xlink:href="classalpaqa_1_1PANOCOCPSolver.html#a74e7957a17047f1b0e6d5ccfcf575a09" target="_top" xlink:title=" ">
<polygon fill="white" stroke="#666666" points="218.5,-344.5 78.5,-344.5 78.5,-314.5 218.5,-314.5 218.5,-344.5"/>
<text text-anchor="start" x="86.5" y="-332.5" font-family="Helvetica,sans-Serif" font-size="10.00">alpaqa::PANOCOCPSolver</text>
<text text-anchor="middle" x="148.5" y="-321.5" font-family="Helvetica,sans-Serif" font-size="10.00">::operator()</text>
</a>
</g>
</g>
<!-- Node7&#45;&gt;Node8 -->
<g id="edge7" class="edge">
<title>Node7&#45;&gt;Node8</title>
<path fill="none" stroke="#63b8ff" d="M255.89,-329.5C243.45,-329.5 230.68,-329.5 218.51,-329.5"/>
<polygon fill="#63b8ff" stroke="#63b8ff" points="256.24,-333 266.24,-329.5 256.24,-326 256.24,-333"/>
</g>
<!-- Node11 -->
<g id="node11" class="node">
<title>Node11</title>
<g id="a_node11"><a xlink:href="classalpaqa_1_1PANTRSolver.html#a2538f4422745a93e1ed73cf706ab41f0" target="_top" xlink:title=" ">
<polygon fill="white" stroke="#666666" points="208,-248.5 89,-248.5 89,-218.5 208,-218.5 208,-248.5"/>
<text text-anchor="start" x="97" y="-236.5" font-family="Helvetica,sans-Serif" font-size="10.00">alpaqa::PANTRSolver</text>
<text text-anchor="middle" x="148.5" y="-225.5" font-family="Helvetica,sans-Serif" font-size="10.00">::operator()</text>
</a>
</g>
</g>
<!-- Node10&#45;&gt;Node11 -->
<g id="edge10" class="edge">
<title>Node10&#45;&gt;Node11</title>
<path fill="none" stroke="#63b8ff" d="M266.69,-233.5C247.45,-233.5 226.72,-233.5 208.12,-233.5"/>
<polygon fill="#63b8ff" stroke="#63b8ff" points="266.9,-237 276.9,-233.5 266.9,-230 266.9,-237"/>
</g>
<!-- Node13 -->
<g id="node13" class="node">
<title>Node13</title>
<g id="a_node13"><a xlink:href="classalpaqa_1_1ZeroFPRSolver.html#a2538f4422745a93e1ed73cf706ab41f0" target="_top" xlink:title=" ">
<polygon fill="white" stroke="#666666" points="212.5,-200.5 84.5,-200.5 84.5,-170.5 212.5,-170.5 212.5,-200.5"/>
<text text-anchor="start" x="92.5" y="-188.5" font-family="Helvetica,sans-Serif" font-size="10.00">alpaqa::ZeroFPRSolver</text>
<text text-anchor="middle" x="148.5" y="-177.5" font-family="Helvetica,sans-Serif" font-size="10.00">::operator()</text>
</a>
</g>
</g>
<!-- Node12&#45;&gt;Node13 -->
<g id="edge12" class="edge">
<title>Node12&#45;&gt;Node13</title>
<path fill="none" stroke="#63b8ff" d="M262.18,-185.5C245.77,-185.5 228.51,-185.5 212.56,-185.5"/>
<polygon fill="#63b8ff" stroke="#63b8ff" points="262.27,-189 272.27,-185.5 262.27,-182 262.27,-189"/>
</g>
<!-- Node17 -->
<g id="node17" class="node">
<title>Node17</title>
<g id="a_node17"><a xlink:href="namespacealpaqa.html#aeef29c248c04d179996b32da47744e6e" target="_top" xlink:title=" ">
<polygon fill="white" stroke="#666666" points="192.5,-93 104.5,-93 104.5,-74 192.5,-74 192.5,-93"/>
<text text-anchor="middle" x="148.5" y="-81" font-family="Helvetica,sans-Serif" font-size="10.00">print_csv_impl</text>
</a>
</g>
</g>
<!-- Node16&#45;&gt;Node17 -->
<g id="edge16" class="edge">
<title>Node16&#45;&gt;Node17</title>
<path fill="none" stroke="#63b8ff" d="M291.69,-55.22C261.84,-61.15 222.5,-68.98 192.77,-74.89"/>
<polygon fill="#63b8ff" stroke="#63b8ff" points="292.69,-58.58 301.82,-53.2 291.33,-51.72 292.69,-58.58"/>
</g>
<!-- Node18 -->
<g id="node18" class="node">
<title>Node18</title>
<g id="a_node18"><a xlink:href="namespacealpaqa.html#a4da9c338a77a145985b61af1bae22559" target="_top" xlink:title=" ">
<polygon fill="white" stroke="#666666" points="201.5,-56 95.5,-56 95.5,-37 201.5,-37 201.5,-56"/>
<text text-anchor="middle" x="148.5" y="-44" font-family="Helvetica,sans-Serif" font-size="10.00">print_matlab_impl</text>
</a>
</g>
</g>
<!-- Node16&#45;&gt;Node18 -->
<g id="edge17" class="edge">
<title>Node16&#45;&gt;Node18</title>
<path fill="none" stroke="#63b8ff" d="M291.52,-46.5C264.55,-46.5 229.88,-46.5 201.55,-46.5"/>
<polygon fill="#63b8ff" stroke="#63b8ff" points="291.82,-50 301.82,-46.5 291.82,-43 291.82,-50"/>
</g>
<!-- Node19 -->
<g id="node19" class="node">
<title>Node19</title>
<g id="a_node19"><a xlink:href="namespacealpaqa.html#a896d22ed0c03842b4bd8ba91137552da" target="_top" xlink:title=" ">
<polygon fill="white" stroke="#666666" points="201,-19 96,-19 96,0 201,0 201,-19"/>
<text text-anchor="middle" x="148.5" y="-7" font-family="Helvetica,sans-Serif" font-size="10.00">print_python_impl</text>
</a>
</g>
</g>
<!-- Node16&#45;&gt;Node19 -->
<g id="edge18" class="edge">
<title>Node16&#45;&gt;Node19</title>
<path fill="none" stroke="#63b8ff" d="M291.78,-37.8C263.41,-32.16 226.42,-24.8 197.28,-19"/>
<polygon fill="#63b8ff" stroke="#63b8ff" points="291.33,-41.28 301.82,-39.8 292.69,-34.42 291.33,-41.28"/>
</g>
</g>
</svg>
