<?xml version="1.0" encoding="UTF-8" standalone="no"?>
<!DOCTYPE svg PUBLIC "-//W3C//DTD SVG 1.1//EN"
 "http://www.w3.org/Graphics/SVG/1.1/DTD/svg11.dtd">
<!-- Generated by graphviz version 2.43.0 (0)
 -->
<!-- Title: n Pages: 1 -->
<svg width="102pt" height="138pt"
 viewBox="0.00 0.00 102.00 138.00" xmlns="http://www.w3.org/2000/svg" xmlns:xlink="http://www.w3.org/1999/xlink">
<g id="graph0" class="graph" transform="scale(1 1) rotate(0) translate(4 134)">
<title>n</title>
<!-- Node1 -->
<g id="node1" class="node">
<title>Node1</title>
<g id="a_node1"><a xlink:title="Get the size of the s and y vectors in the buffer.">
<polygon fill="#999999" stroke="#666666" points="94,-74 65,-74 65,-55 94,-55 94,-74"/>
<text text-anchor="middle" x="79.5" y="-62" font-family="Helvetica,sans-Serif" font-size="10.00">n</text>
</a>
</g>
</g>
<!-- Node2 -->
<g id="node2" class="node">
<title>Node2</title>
<g id="a_node2"><a xlink:href="structalpaqa_1_1LBFGSStorage.html#ac7c2ee7d2562303f555dd1f4c3fca8cd" target="_top" xlink:title=" ">
<polygon fill="white" stroke="#666666" points="29,-130 0,-130 0,-111 29,-111 29,-130"/>
<text text-anchor="middle" x="14.5" y="-118" font-family="Helvetica,sans-Serif" font-size="10.00">α</text>
</a>
</g>
</g>
<!-- Node1&#45;&gt;Node2 -->
<g id="edge1" class="edge">
<title>Node1&#45;&gt;Node2</title>
<path fill="none" stroke="#63b8ff" d="M59.78,-81.14C48.88,-90.83 35.52,-102.7 26.35,-110.86"/>
<polygon fill="#63b8ff" stroke="#63b8ff" points="62.38,-83.51 67.53,-74.25 57.73,-78.28 62.38,-83.51"/>
</g>
<!-- Node3 -->
<g id="node3" class="node">
<title>Node3</title>
<g id="a_node3"><a xlink:href="structalpaqa_1_1LBFGSStorage.html#acade3dc51f7ca788be9b91908b2e73ab" target="_top" xlink:title=" ">
<polygon fill="white" stroke="#666666" points="29,-93 0,-93 0,-74 29,-74 29,-93"/>
<text text-anchor="middle" x="14.5" y="-81" font-family="Helvetica,sans-Serif" font-size="10.00">ρ</text>
</a>
</g>
</g>
<!-- Node1&#45;&gt;Node3 -->
<g id="edge2" class="edge">
<title>Node1&#45;&gt;Node3</title>
<path fill="none" stroke="#63b8ff" d="M55.14,-71.54C46.39,-74.18 36.73,-77.1 29.14,-79.39"/>
<polygon fill="#63b8ff" stroke="#63b8ff" points="56.27,-74.86 64.83,-68.62 54.25,-68.16 56.27,-74.86"/>
</g>
<!-- Node4 -->
<g id="node4" class="node">
<title>Node4</title>
<g id="a_node4"><a xlink:href="structalpaqa_1_1LBFGSStorage.html#a15e4a3db39457cabe764a7737d24e73f" target="_top" xlink:title=" ">
<polygon fill="white" stroke="#666666" points="29,-56 0,-56 0,-37 29,-37 29,-56"/>
<text text-anchor="middle" x="14.5" y="-44" font-family="Helvetica,sans-Serif" font-size="10.00">s</text>
</a>
</g>
</g>
<!-- Node1&#45;&gt;Node4 -->
<g id="edge3" class="edge">
<title>Node1&#45;&gt;Node4</title>
<path fill="none" stroke="#63b8ff" d="M55.14,-57.83C46.39,-55.33 36.73,-52.57 29.14,-50.4"/>
<polygon fill="#63b8ff" stroke="#63b8ff" points="54.25,-61.21 64.83,-60.59 56.18,-54.48 54.25,-61.21"/>
</g>
<!-- Node5 -->
<g id="node5" class="node">
<title>Node5</title>
<g id="a_node5"><a xlink:href="structalpaqa_1_1LBFGSStorage.html#aebac2ec4461761a48a7284152a8217f8" target="_top" xlink:title=" ">
<polygon fill="white" stroke="#666666" points="29,-19 0,-19 0,0 29,0 29,-19"/>
<text text-anchor="middle" x="14.5" y="-7" font-family="Helvetica,sans-Serif" font-size="10.00">y</text>
</a>
</g>
</g>
<!-- Node1&#45;&gt;Node5 -->
<g id="edge4" class="edge">
<title>Node1&#45;&gt;Node5</title>
<path fill="none" stroke="#63b8ff" d="M59.88,-48.25C49.13,-38.86 35.96,-27.36 26.77,-19.34"/>
<polygon fill="#63b8ff" stroke="#63b8ff" points="57.69,-50.98 67.53,-54.92 62.29,-45.71 57.69,-50.98"/>
</g>
</g>
</svg>
